<?xml version="1.0" encoding="UTF-8" standalone="no"?>
<!-- Created with Inkscape (http://www.inkscape.org/) -->

<svg
   xmlns:dc="http://purl.org/dc/elements/1.1/"
   xmlns:cc="http://creativecommons.org/ns#"
   xmlns:rdf="http://www.w3.org/1999/02/22-rdf-syntax-ns#"
   xmlns:svg="http://www.w3.org/2000/svg"
   xmlns="http://www.w3.org/2000/svg"
   xmlns:sodipodi="http://sodipodi.sourceforge.net/DTD/sodipodi-0.dtd"
   xmlns:inkscape="http://www.inkscape.org/namespaces/inkscape"
   width="53mm"
   height="10.58333mm"
   viewBox="0 0 53 10.58333"
   id="svg2"
   version="1.1"
   inkscape:version="0.91 r13725"
   sodipodi:docname="bodhi-logo.svg"
   inkscape:export-filename="/home/rlerch/Source/bodhi/bodhi/static/img/bodhi-logo.png"
   inkscape:export-xdpi="192"
   inkscape:export-ydpi="192">
  <defs
     id="defs4">
    <clipPath
       clipPathUnits="userSpaceOnUse"
       id="clipPath4728">
      <path
         style="color:#000000;clip-rule:nonzero;display:inline;overflow:visible;visibility:visible;opacity:1;isolation:auto;mix-blend-mode:normal;color-interpolation:sRGB;color-interpolation-filters:linearRGB;solid-color:#000000;solid-opacity:1;fill:#eeeeec;fill-opacity:1;fill-rule:nonzero;stroke:none;stroke-width:14.10000038;stroke-linecap:butt;stroke-linejoin:miter;stroke-miterlimit:4;stroke-dasharray:none;stroke-dashoffset:0;stroke-opacity:1;marker:none;color-rendering:auto;image-rendering:auto;shape-rendering:auto;text-rendering:auto;enable-background:accumulate"
         d="m 167.81836,667.49805 -4.01953,2.78906 c 0,0 -11.91693,8.25174 -23.79297,21.38086 -9.60969,10.62364 -19.64573,24.67349 -23.12695,41.00976 -14.12706,-18.76452 -25.935551,-35.4082 -25.935551,-35.4082 L 83.595703,686.91016 78.691406,698.625 c 0,0 -7.463281,17.99531 -10.11914,48.17383 -0.0051,-0.007 -0.142578,-0.1836 -0.142578,-0.1836 L 61.292969,737.4082 56.447266,748 c 0,0 -12.06836,26.61236 -12.06836,69.36133 l 0,0.23437 0.01563,0.23242 c 0,0 1.088766,16.61713 12.648438,32.9004 10.553018,14.86527 30.300165,29.46527 63.734366,31.89648 3.54246,5.80896 9.00718,10.61217 16.17383,13.62695 7.49835,3.15432 16.7321,4.58789 28.40821,4.58789 11.67609,0 20.90985,-1.43357 28.4082,-4.58789 7.07123,-2.97463 12.48733,-7.68954 16.0332,-13.39453 35.97603,-1.47307 56.92545,-16.65555 67.91016,-32.1289 11.55967,-16.28327 12.64843,-32.90039 12.64844,-32.9004 l 0.0156,-0.23242 0,-0.23437 C 290.37502,774.61236 278.30859,748 278.30859,748 l -4.84765,-10.5918 -7.13672,9.20703 c 0,0 -1.36905,1.75932 -3.49024,4.46289 -2.28356,-32.74936 -10.45117,-52.45507 -10.45117,-52.45507 l -4.90625,-11.71485 -7.34765,10.36133 c 0,0 -9.97889,14.05341 -22.52735,30.85547 -4.21601,-14.39809 -13.26614,-26.83402 -21.9707,-36.45703 -11.87604,-13.12912 -23.79297,-21.38086 -23.79297,-21.38086 l -4.01953,-2.78906 z"
         id="path4730"
         inkscape:connector-curvature="0" />
    </clipPath>
  </defs>
  <sodipodi:namedview
     id="base"
     pagecolor="#ffffff"
     bordercolor="#666666"
     borderopacity="1.0"
     inkscape:pageopacity="0.0"
     inkscape:pageshadow="2"
     inkscape:zoom="1.4142136"
     inkscape:cx="75.613198"
     inkscape:cy="-24.276992"
     inkscape:document-units="mm"
     inkscape:current-layer="g5908"
     showgrid="false"
     fit-margin-top="0"
     fit-margin-left="0"
     fit-margin-right="0"
     fit-margin-bottom="0"
     inkscape:window-width="1920"
     inkscape:window-height="1136"
     inkscape:window-x="0"
     inkscape:window-y="27"
     inkscape:window-maximized="1"
     inkscape:snap-bbox="true"
     inkscape:bbox-nodes="true"
     inkscape:snap-page="true"
     inkscape:snap-global="false" />
  <metadata
     id="metadata7">
    <rdf:RDF>
      <cc:Work
         rdf:about="">
        <dc:format>image/svg+xml</dc:format>
        <dc:type
           rdf:resource="http://purl.org/dc/dcmitype/StillImage" />
        <dc:title></dc:title>
      </cc:Work>
    </rdf:RDF>
  </metadata>
  <g
     inkscape:label="Layer 1"
     inkscape:groupmode="layer"
     id="layer1"
     transform="translate(-48.767028,-31.073165)">
    <g
       id="g4595"
       transform="matrix(0.45619308,0,0,0.45619308,26.519847,-9.145808)">
      <g
         id="g4624"
         transform="matrix(0.92003825,0,0,0.92003825,3.8994993,8.9046582)">
        <text
           sodipodi:linespacing="125%"
           id="text4225"
           y="105.38262"
           x="81.023911"
           style="font-style:normal;font-weight:normal;font-size:9.80414486px;line-height:125%;font-family:Sans;letter-spacing:0px;word-spacing:0px;fill:#555753;fill-opacity:1;stroke:none;stroke-width:0.29657274px;stroke-linecap:butt;stroke-linejoin:miter;stroke-opacity:1"
           xml:space="preserve"><tspan
             style="font-style:normal;font-variant:normal;font-weight:normal;font-stretch:normal;font-family:Montserrat;-inkscape-font-specification:Montserrat;fill:#555753;fill-opacity:1;stroke-width:0.29657274px"
             y="105.38262"
             x="81.023911"
             id="tspan4227"
             sodipodi:role="line">UPDATES SYSTEM</tspan></text>
        <g
           transform="matrix(0.13021808,0,0,0.13021808,81.320417,88.036686)"
           id="g4488">
          <g
             transform="translate(-266.55899,-345.34488)"
             id="layer1-0">
            <path
               inkscape:connector-curvature="0"
               d="m 316.7736,397.581 c 0,0 0,0 -20.53889,0 0.3327,4.45245 3.92157,7.77609 8.70715,7.77609 3.38983,0 6.31456,-1.39616 8.64094,-3.65507 0.46553,-0.46679 0.99726,-0.59962 1.59519,-0.59962 0.79781,0 1.59561,0.39932 2.12692,1.06388 0.3327,0.46553 0.53216,0.99726 0.53216,1.52857 0,0.73118 -0.3327,1.52857 -0.93106,2.12734 -2.7919,2.99052 -7.51086,4.98503 -12.16403,4.98503 -8.44149,0 -15.22074,-6.77967 -15.22074,-15.22158 0,-8.44149 6.58022,-15.22074 15.02171,-15.22074 8.37529,0 14.62323,6.51317 14.62323,15.08749 0,1.26418 -1.12924,2.12861 -2.39258,2.12861 z m -12.23065,-11.76512 c -4.45329,0 -7.51085,2.92473 -8.17499,7.17731 10.03626,0 16.35083,0 16.35083,0 -0.59836,-4.05355 -3.78874,-7.17731 -8.17584,-7.17731 z"
               id="path11"
               style="fill:#3c6eb4" />
            <path
               inkscape:connector-curvature="0"
               d="m 375.46344,410.80807 c -8.44106,0 -15.22074,-6.77968 -15.22074,-15.22159 0,-8.44149 6.77968,-15.22074 15.22074,-15.22074 8.44234,0 15.22159,6.77925 15.22159,15.22074 -4.2e-4,8.44149 -6.77968,15.22159 -15.22159,15.22159 z m 0,-24.65992 c -5.31688,0 -8.77377,4.25427 -8.77377,9.43833 0,5.18364 3.45689,9.43833 8.77377,9.43833 5.31731,0 8.77504,-4.25469 8.77504,-9.43833 -4.2e-4,-5.18406 -3.45773,-9.43833 -8.77504,-9.43833 z"
               id="path13"
               style="fill:#3c6eb4" />
            <path
               inkscape:connector-curvature="0"
               d="m 412.66183,380.36574 c -4.45963,0 -7.40966,1.319 -10.01391,4.62956 l -0.24036,-1.53995 0,0 c -0.20198,-1.60743 -1.57326,-2.84926 -3.23382,-2.84926 -1.80139,0 -3.26206,1.459 -3.26206,3.26081 0,0.003 0,0.005 0,0.008 l 0,0 0,0.003 0,0 0,23.40712 c 0,1.79464 1.46194,3.25743 3.257,3.25743 1.79465,0 3.25744,-1.46279 3.25744,-3.25743 l 0,-12.56209 c 0,-5.71621 4.98502,-8.57432 10.23613,-8.57432 1.59519,0 2.85726,-1.32953 2.85726,-2.92515 0,-1.59561 -1.26207,-2.85726 -2.85768,-2.85726 z"
               id="path15"
               style="fill:#3c6eb4" />
            <path
               inkscape:connector-curvature="0"
               d="m 447.02614,395.58648 c 0.0666,-8.17541 -5.78326,-15.22074 -15.222,-15.22074 -8.44192,0 -15.28779,6.77925 -15.28779,15.22074 0,8.44191 6.64684,15.22159 14.68985,15.22159 4.01434,0 7.62682,-2.06621 9.23846,-4.22518 l 0.79359,2.01434 0,0 c 0.42589,1.13177 1.5176,1.93717 2.7978,1.93717 1.65001,0 2.98756,-1.33671 2.99009,-2.98545 l 0,0 0,-7.80687 0,0 z m -15.222,9.43833 c -5.31773,0 -8.77419,-4.25469 -8.77419,-9.43833 0,-5.18406 3.45604,-9.43833 8.77419,-9.43833 5.3173,0 8.77419,4.25427 8.77419,9.43833 0,5.18364 -3.45689,9.43833 -8.77419,9.43833 z"
               id="path17"
               style="fill:#3c6eb4" />
            <path
               inkscape:connector-curvature="0"
               d="m 355.01479,368.3337 c 0,-1.7938 -1.46194,-3.18997 -3.25659,-3.18997 -1.79422,0 -3.25743,1.39659 -3.25743,3.18997 l 0,17.1499 c -1.66097,-3.05756 -5.25026,-5.11786 -9.50495,-5.11786 -8.64052,0 -14.42336,6.51318 -14.42336,15.22074 0,8.70757 5.98229,15.22159 14.42336,15.22159 3.76555,0 7.03057,-1.55429 8.98587,-4.25554 l 0.72317,1.83428 c 0.44782,1.25912 1.64917,2.16024 3.06051,2.16024 1.78621,0 3.24984,-1.45435 3.24984,-3.24815 0,-0.005 0,-0.009 0,-0.0139 l 0,0 0,-38.95128 -4.2e-4,0 z m -15.22116,36.69111 c -5.31731,0 -8.70715,-4.25469 -8.70715,-9.43833 0,-5.18406 3.38984,-9.43833 8.70715,-9.43833 5.31773,0 8.70714,4.0544 8.70714,9.43833 0,5.38309 -3.38941,9.43833 -8.70714,9.43833 z"
               id="path19"
               style="fill:#3c6eb4" />
            <path
               inkscape:connector-curvature="0"
               d="m 287.21553,365.34023 c -0.59414,-0.0877 -1.19966,-0.13198 -1.80097,-0.13198 -6.73118,0 -12.20746,5.4767 -12.20746,12.20788 l 0,3.8132 -3.98903,0 c -1.46237,0 -2.65908,1.19671 -2.65908,2.65781 0,1.46321 1.19671,2.93738 2.65908,2.93738 l 3.98819,0 0,20.46004 c 0,1.79464 1.46236,3.25743 3.25658,3.25743 1.79507,0 3.25744,-1.46279 3.25744,-3.25743 l 0,-20.46004 4.40986,0 c 1.46194,0 2.65823,-1.47417 2.65823,-2.93738 0,-1.46152 -1.19629,-2.65823 -2.65823,-2.65823 l -4.40733,0 0,-3.8132 c 0,-3.13852 2.55323,-6.11469 5.69175,-6.11469 0.28294,0 0.56757,0.0211 0.84672,0.062 1.78031,0.26355 3.4358,-0.54269 3.70019,-2.32342 0.2627,-1.77904 -0.96606,-3.43538 -2.74594,-3.69935 z"
               id="path21"
               style="fill:#3c6eb4" />
          </g>
          <path
             inkscape:connector-curvature="0"
             d="m 181.98344,61.675273 2.81558,0 0,0.37898 -1.18152,0 0,2.94935 -0.45254,0 0,-2.94935 -1.18152,0 0,-0.37898 m 3.26144,0 0.67101,0 0.84937,2.26496 0.85381,-2.26496 0.67102,0 0,3.32833 -0.43917,0 0,-2.9226 -0.85828,2.28279 -0.45255,0 -0.85827,-2.28279 0,2.9226 -0.43694,0 0,-3.32833"
             id="path2391"
             style="fill:#294172;enable-background:new" />
        </g>
        <g
           id="g5902"
           transform="translate(0,4.7546837)" />
        <g
           id="g5908"
           transform="matrix(0.15276193,0,0,0.15276193,26.535634,75.716084)">
          <circle
             r="48.462593"
             cy="152.58223"
             cx="246.463"
             id="circle4192"
             style="color:#000000;clip-rule:nonzero;display:inline;overflow:visible;visibility:visible;opacity:1;isolation:auto;mix-blend-mode:normal;color-interpolation:sRGB;color-interpolation-filters:linearRGB;solid-color:#000000;solid-opacity:1;fill:none;fill-opacity:1;fill-rule:nonzero;stroke:#ffffff;stroke-width:10.42058849;stroke-linecap:butt;stroke-linejoin:miter;stroke-miterlimit:4;stroke-dasharray:none;stroke-dashoffset:0;stroke-opacity:1;marker:none;color-rendering:auto;image-rendering:auto;shape-rendering:auto;text-rendering:auto;enable-background:accumulate" />
          <path
             sodipodi:nodetypes="ccccc"
             inkscape:connector-curvature="0"
             id="path4178"
             d="m 193.54115,96.000418 c 0,0 39.73582,56.027412 46.99936,57.428092 l -6.40899,24.27855 c -45.10855,0 -47.42664,-38.2854 -47.42664,-38.2854 0,-27.09601 6.83627,-43.421242 6.83627,-43.421242 z"
             style="color:#000000;clip-rule:nonzero;display:inline;overflow:visible;visibility:visible;opacity:1;isolation:auto;mix-blend-mode:normal;color-interpolation:sRGB;color-interpolation-filters:linearRGB;solid-color:#000000;solid-opacity:1;fill:#b6b6b6;fill-opacity:1;fill-rule:nonzero;stroke:#888a85;stroke-width:8.36325073;stroke-linecap:butt;stroke-linejoin:miter;stroke-miterlimit:4;stroke-dasharray:none;stroke-dashoffset:0;stroke-opacity:1;marker:none;color-rendering:auto;image-rendering:auto;shape-rendering:auto;text-rendering:auto;enable-background:accumulate" />
          <path
             sodipodi:nodetypes="ccccc"
             inkscape:connector-curvature="0"
             id="path4180"
             d="m 277.76906,123.80555 c 0,-24.999452 -30.37186,-46.076242 -30.37186,-46.076242 0,0 -30.37187,21.07679 -30.37187,46.076242 0,22.84064 0.21454,37.91691 30.37187,37.91691 30.15732,0 30.37186,-15.07627 30.37186,-37.91691 z"
             style="color:#000000;clip-rule:nonzero;display:inline;overflow:visible;visibility:visible;opacity:1;isolation:auto;mix-blend-mode:normal;color-interpolation:sRGB;color-interpolation-filters:linearRGB;solid-color:#000000;solid-opacity:1;fill:#b6b6b6;fill-opacity:1;fill-rule:nonzero;stroke:#888a85;stroke-width:8.36325073;stroke-linecap:butt;stroke-linejoin:miter;stroke-miterlimit:4;stroke-dasharray:none;stroke-dashoffset:0;stroke-opacity:1;marker:none;color-rendering:auto;image-rendering:auto;shape-rendering:auto;text-rendering:auto;enable-background:accumulate" />
          <path
             style="color:#000000;clip-rule:nonzero;display:inline;overflow:visible;visibility:visible;opacity:1;isolation:auto;mix-blend-mode:normal;color-interpolation:sRGB;color-interpolation-filters:linearRGB;solid-color:#000000;solid-opacity:1;fill:#b6b6b6;fill-opacity:1;fill-rule:nonzero;stroke:#888a85;stroke-width:8.36325073;stroke-linecap:butt;stroke-linejoin:miter;stroke-miterlimit:4;stroke-dasharray:none;stroke-dashoffset:0;stroke-opacity:1;marker:none;color-rendering:auto;image-rendering:auto;shape-rendering:auto;text-rendering:auto;enable-background:accumulate"
             d="m 298.18488,96.000418 c 0,0 -39.73582,56.027412 -46.99937,57.428092 l 6.409,24.27855 c 45.10854,0 47.42664,-38.2854 47.42664,-38.2854 0,-27.09601 -6.83627,-43.421242 -6.83627,-43.421242 z"
             id="path4182"
             inkscape:connector-curvature="0"
             sodipodi:nodetypes="ccccc" />
          <ellipse
             style="color:#000000;clip-rule:nonzero;display:inline;overflow:visible;visibility:visible;opacity:1;isolation:auto;mix-blend-mode:normal;color-interpolation:sRGB;color-interpolation-filters:linearRGB;solid-color:#000000;solid-opacity:1;fill:#ffffff;fill-opacity:1;fill-rule:nonzero;stroke:#888a85;stroke-width:7.63194036;stroke-linecap:butt;stroke-linejoin:miter;stroke-miterlimit:4;stroke-dasharray:none;stroke-dashoffset:0;stroke-opacity:1;marker:none;color-rendering:auto;image-rendering:auto;shape-rendering:auto;text-rendering:auto;enable-background:accumulate"
             id="circle4970"
             cx="246.463"
             cy="157.33691"
             rx="43.400803"
             ry="38.445259" />
          <path
             style="color:#000000;clip-rule:nonzero;display:inline;overflow:visible;visibility:visible;opacity:1;isolation:auto;mix-blend-mode:normal;color-interpolation:sRGB;color-interpolation-filters:linearRGB;solid-color:#000000;solid-opacity:1;fill:#b6b6b6;fill-opacity:1;fill-rule:nonzero;stroke:#888a85;stroke-width:8.36325073;stroke-linecap:butt;stroke-linejoin:miter;stroke-miterlimit:4;stroke-dasharray:none;stroke-dashoffset:0;stroke-opacity:1;marker:none;color-rendering:auto;image-rendering:auto;shape-rendering:auto;text-rendering:auto;enable-background:accumulate"
             d="m 180.32426,127.71338 c 0,0 42.44042,54.76188 50.19835,56.13089 l -6.84521,23.73012 c -48.17886,0 -50.65476,-37.42055 -50.65476,-37.42055 0,-26.48398 7.30162,-42.44046 7.30162,-42.44046 z"
             id="path4186"
             inkscape:connector-curvature="0"
             sodipodi:nodetypes="ccccc" />
          <path
             sodipodi:nodetypes="ccccc"
             inkscape:connector-curvature="0"
             id="path4188"
             d="m 313.87739,127.71338 c 0,0 -42.44042,54.76188 -50.19835,56.13089 l 6.84521,23.73012 c 48.17886,0 50.65476,-37.42055 50.65476,-37.42055 0,-26.48398 -7.30162,-42.44046 -7.30162,-42.44046 z"
             style="color:#000000;clip-rule:nonzero;display:inline;overflow:visible;visibility:visible;opacity:1;isolation:auto;mix-blend-mode:normal;color-interpolation:sRGB;color-interpolation-filters:linearRGB;solid-color:#000000;solid-opacity:1;fill:#b6b6b6;fill-opacity:1;fill-rule:nonzero;stroke:#888a85;stroke-width:8.36325073;stroke-linecap:butt;stroke-linejoin:miter;stroke-miterlimit:4;stroke-dasharray:none;stroke-dashoffset:0;stroke-opacity:1;marker:none;color-rendering:auto;image-rendering:auto;shape-rendering:auto;text-rendering:auto;enable-background:accumulate" />
          <path
             style="color:#000000;clip-rule:nonzero;display:inline;overflow:visible;visibility:visible;opacity:1;isolation:auto;mix-blend-mode:normal;color-interpolation:sRGB;color-interpolation-filters:linearRGB;solid-color:#000000;solid-opacity:1;fill:#b6b6b6;fill-opacity:1;fill-rule:nonzero;stroke:#888a85;stroke-width:8.36325073;stroke-linecap:butt;stroke-linejoin:miter;stroke-miterlimit:4;stroke-dasharray:none;stroke-dashoffset:0;stroke-opacity:1;marker:none;color-rendering:auto;image-rendering:auto;shape-rendering:auto;text-rendering:auto;enable-background:accumulate"
             d="m 275.76105,183.80143 c 0,-25.0169 -30.01703,-46.10838 -30.01703,-46.10838 0,0 -30.01702,21.09148 -30.01702,46.10838 0,22.85656 0.21203,37.94335 30.01702,37.94335 29.80499,0 30.01703,-15.08679 30.01703,-37.94335 z"
             id="path4190"
             inkscape:connector-curvature="0"
             sodipodi:nodetypes="ccccc" />
        </g>
      </g>
    </g>
  </g>
</svg>
